<svg id="Layer_1" enable-background="new 0 0 102 104" height="512" viewBox="0 0 102 104" width="512" xmlns="http://www.w3.org/2000/svg"><g><path d="m2 55.8c-1 0-1.8-.8-1.8-1.8v-4c0-1 .8-1.8 1.8-1.8s1.7.8 1.7 1.8v4c0 1-.8 1.8-1.7 1.8z" fill="rgb(0,0,0)"/></g><g><path d="m11.8 57.8c-1 0-1.8-.8-1.8-1.8v-8c0-1 .8-1.8 1.8-1.8s1.8.8 1.8 1.8v8c-.1 1-.8 1.8-1.8 1.8z" fill="rgb(0,0,0)"/></g><g><path d="m21.6 73.8c-1 0-1.8-.8-1.8-1.8v-40c0-1 .8-1.8 1.8-1.8s1.8.8 1.8 1.8v40.1c-.1.9-.8 1.7-1.8 1.7z" fill="rgb(0,0,0)"/></g><g><path d="m31.4 83.8c-1 0-1.8-.8-1.8-1.8v-60c0-1 .8-1.8 1.8-1.8s1.8.8 1.8 1.8v60c-.1 1-.8 1.8-1.8 1.8z" fill="rgb(0,0,0)"/></g><g><path d="m41.2 103.8c-1 0-1.8-.8-1.8-1.8v-100c0-1 .8-1.8 1.8-1.8s1.7.8 1.7 1.8v100c0 1-.7 1.8-1.7 1.8z" fill="rgb(0,0,0)"/></g><g><path d="m51 73.8c-1 0-1.8-.8-1.8-1.8v-40c0-1 .8-1.8 1.8-1.8s1.8.8 1.8 1.8v40c0 1-.8 1.8-1.8 1.8z" fill="rgb(0,0,0)"/></g><g><path d="m60.8 67.8c-1 0-1.8-.8-1.8-1.8v-28c0-1 .8-1.8 1.8-1.8s1.8.8 1.8 1.8v28c0 1-.8 1.8-1.8 1.8z" fill="rgb(0,0,0)"/></g><g><path d="m70.6 78.3c-1 0-1.8-.8-1.8-1.8v-48c0-1 .8-1.8 1.8-1.8s1.8.8 1.8 1.8v48c0 1-.8 1.8-1.8 1.8z" fill="rgb(0,0,0)"/></g><g><path d="m80.4 64.8c-1 0-1.8-.8-1.8-1.8v-22c0-1 .8-1.8 1.8-1.8s1.8.8 1.8 1.8v22c0 1-.8 1.8-1.8 1.8z" fill="rgb(0,0,0)"/></g><g><path d="m90.2 62.8c-1 0-1.8-.8-1.8-1.8v-18c0-1 .8-1.8 1.8-1.8s1.8.8 1.8 1.8v18c0 1-.8 1.8-1.8 1.8z" fill="rgb(0,0,0)"/></g><g><path d="m100 66.8c-1 0-1.8-.8-1.8-1.8v-26c0-1 .8-1.8 1.8-1.8s1.8.8 1.8 1.8v26c0 1-.8 1.8-1.8 1.8z" fill="rgb(0,0,0)"/></g></svg>