<svg id="Layer_1" height="512" viewBox="0 0 512 512" width="512" xmlns="http://www.w3.org/2000/svg" fill="white" data-name="Layer 1"><path d="m193.388 445.76h110.958a55.917 55.917 0 0 1 -110.958 0zm196.361-176.84h-146.485a29.165 29.165 0 0 1 -25.071-44.066l86.175-144.974a134.422 134.422 0 0 0 -55.649-12.28c-77.237 0-137.748 59.636-137.807 135.788.224 7.117 3.342 130.171-43.772 184.159h363.176c-25.203-29.219-36.007-78.424-40.567-118.627zm-130.649-214.928v-26.3a10.385 10.385 0 0 0 -20.77 0v26.248c3.439-.221 6.9-.343 10.386-.343 3.463.003 6.927.142 10.384.395zm-209.89 377.768h399.314a15.108 15.108 0 0 0 0-30.216h-399.314a15.108 15.108 0 0 0 0 30.216zm426.678-184.506a15 15 0 0 1 -13.181 7.666h-219.443a15.165 15.165 0 0 1 -13.037-22.913l109.722-184.586a15.165 15.165 0 0 1 26.072 0l109.722 184.586a15 15 0 0 1 .145 15.247zm-113.469-17.129a9.434 9.434 0 1 0 -9.434 9.434 9.446 9.446 0 0 0 9.434-9.434zm5.072-142.058v-.112a14.5 14.5 0 0 0 -29.008 0v.112.114c.167 3.679 3.711 72.212 5.063 98.312v.151a9.434 9.434 0 1 0 18.868 0v-.155c1.352-26.1 4.9-94.634 5.063-98.307z"/></svg>