<svg id="Capa_1" fill="white" enable-background="new 0 0 512 512" height="512" viewBox="0 0 512 512" width="512" xmlns="http://www.w3.org/2000/svg"><g><path d="m5.401 147.024 45.181 37.659c2.701 2.25 6.102 3.48 9.612 3.48h52.832v-105.324h-52.832c-3.511 0-6.912 1.23-9.612 3.481l-45.181 37.659c-3.42 2.851-5.401 7.072-5.401 11.523s1.981 8.672 5.401 11.522z"/><path d="m143.034 82.839h45.241v105.325h-45.241z"/><path d="m113.026 263.592h-52.832c-3.511 0-6.912 1.23-9.612 3.471l-45.181 37.659c-3.42 2.849-5.401 7.071-5.401 11.522 0 4.461 1.981 8.682 5.401 11.532l45.181 37.659c2.701 2.241 6.102 3.471 9.612 3.471h52.832z"/><path d="m143.034 263.592h45.241v105.314h-45.241z"/><path d="m218.401 391.622h75.198v-346.491c0-3.251-1.05-6.402-3.001-9.002l-22.595-30.128c-2.831-3.781-7.282-6.001-12.003-6.001s-9.172 2.22-12.003 6.001l-22.595 30.127c-1.94 2.601-3.001 5.751-3.001 9.002z"/><path d="m508.999 216.871-45.191-60.244c-2.831-3.781-7.282-6.001-12.003-6.001h-128.08v60.243h97.963c8.282 0 15.004 6.722 15.004 15.004 0 8.292-6.722 15.003-15.004 15.003h-97.963v60.255h128.08c4.721 0 9.172-2.231 12.003-6.002l45.191-60.254c4.001-5.331 4.001-12.673 0-18.004z"/><path d="m399.094 481.993h-67.836v-45.241c0-8.292-6.722-15.003-15.003-15.003h-120.499c-8.292 0-15.004 6.711-15.004 15.003v45.241h-67.844c-8.286 0-15.004 6.718-15.004 15.004s6.719 15.003 15.005 15.003h286.185c8.286 0 15.003-6.717 15.003-15.003s-6.717-15.004-15.003-15.004z"/></g></svg>