<svg id="Capa_1" enable-background="new 0 0 515.283 515.283" height="512" viewBox="0 0 515.283 515.283" width="512" xmlns="http://www.w3.org/2000/svg"><g><g><g><g><path d="m257.641 515.283c-15.292 0-29.67-5.957-40.483-16.771-10.814-10.814-16.769-25.192-16.769-40.485s5.956-29.67 16.769-40.483c10.815-10.814 25.192-16.771 40.484-16.771 15.294 0 29.672 5.957 40.485 16.771 10.814 10.814 16.768 25.191 16.768 40.483 0 15.294-5.955 29.671-16.768 40.485-10.815 10.814-25.193 16.771-40.486 16.771zm0-200.389c-15.293 0-29.67-5.955-40.483-16.768-10.814-10.814-16.769-25.192-16.769-40.485s5.956-29.67 16.769-40.485c10.815-10.814 25.191-16.769 40.484-16.769 15.294 0 29.672 5.956 40.485 16.769 10.814 10.814 16.768 25.191 16.768 40.485s-5.955 29.671-16.768 40.485c-10.815 10.813-25.193 16.768-40.486 16.768zm0-200.387c-15.295 0-29.673-5.957-40.486-16.773-10.813-10.813-16.767-25.191-16.767-40.481s5.955-29.666 16.767-40.481c10.813-10.816 25.191-16.772 40.486-16.772s29.674 5.956 40.487 16.771c10.813 10.816 16.767 25.192 16.767 40.483s-5.955 29.669-16.767 40.483c-10.812 10.813-25.191 16.77-40.487 16.77z" fill="rgb(0,0,0)"/></g></g></g></g></svg>